<svg xmlns="http://www.w3.org/2000/svg" viewBox="0 0 64 80" x="0px" y="0px"><g data-name="17-Alarm"><path d="M57,16H51.61816l-1.72363-3.44727A1.0004,1.0004,0,0,0,49,12H15a1.0004,1.0004,0,0,0-.89453.55273L12.38184,16H7a5.00588,5.00588,0,0,0-5,5V43a5.00588,5.00588,0,0,0,5,5h.21973l.81054,3.24219A.99962.99962,0,0,0,9,52h8a.99962.99962,0,0,0,.96973-.75781L18.78027,48H45.21973l.81054,3.24219A.99962.99962,0,0,0,47,52h8a.99962.99962,0,0,0,.96973-.75781L56.78027,48H57a5.00588,5.00588,0,0,0,5-5V21A5.00588,5.00588,0,0,0,57,16ZM15.61816,14H48.38184l1,2H14.61816Zm.60059,36H9.78125l-.50061-2h7.43872Zm38,0h-6.4375l-.50061-2h7.43872ZM60,43a3.00328,3.00328,0,0,1-3,3H7a3.00328,3.00328,0,0,1-3-3V21a3.00328,3.00328,0,0,1,3-3H57a3.00328,3.00328,0,0,1,3,3ZM57,20H7a.99974.99974,0,0,0-1,1V43a.99943.99943,0,0,0,1,1H57a.99943.99943,0,0,0,1-1V21A.99974.99974,0,0,0,57,20ZM56,42H8V22H56ZM12,39h6a.99943.99943,0,0,0,1-1V26a.99974.99974,0,0,0-1-1H12a.99974.99974,0,0,0-1,1V38A.99943.99943,0,0,0,12,39Zm1-12h4V37H13ZM36,39h6a.99943.99943,0,0,0,1-1V26a.99974.99974,0,0,0-1-1H36a.99974.99974,0,0,0-1,1V38A.99943.99943,0,0,0,36,39Zm1-12h4V37H37Zm9,12h6a.99943.99943,0,0,0,1-1V26a.99974.99974,0,0,0-1-1H46a.99974.99974,0,0,0-1,1V38A.99943.99943,0,0,0,46,39Zm1-12h4V37H47ZM31,30V28a1,1,0,0,1,2,0v2a1,1,0,0,1-2,0Zm0,6V34a1,1,0,0,1,2,0v2a1,1,0,0,1-2,0Zm-9,1a1,1,0,0,0,0,2h6a.99943.99943,0,0,0,1-1V26a.99974.99974,0,0,0-1-1H22a.99974.99974,0,0,0-1,1v6a.99974.99974,0,0,0,1,1h5v4Zm1-6V27h4v4Z"/></g><text x="0" y="79" fill="#000000" font-size="5px" font-weight="bold" font-family="'Helvetica Neue', Helvetica, Arial-Unicode, Arial, Sans-serif">Created by Nawicon</text><text x="0" y="84" fill="#000000" font-size="5px" font-weight="bold" font-family="'Helvetica Neue', Helvetica, Arial-Unicode, Arial, Sans-serif">from the Noun Project</text></svg>